HIERARCHY
ROOT Hips
{
  OFFSET -187.679 86.5976 -156.378
  CHANNELS 6 Xposition Yposition Zposition Zrotation Xrotation Yrotation
  JOINT LeftUpLeg
  {
    OFFSET 8.64259 1.95398 -2.38835
    CHANNELS 3 Zrotation Xrotation Yrotation
    JOINT LeftLeg
    {
      OFFSET 43.7702 0 0
      CHANNELS 3 Zrotation Xrotation Yrotation
      JOINT LeftFoot
      {
        OFFSET 40.6238 0 0
        CHANNELS 3 Zrotation Xrotation Yrotation
        JOINT LeftToeBase
        {
          OFFSET 12.7242 0 0
          CHANNELS 3 Zrotation Xrotation Yrotation
          End Site
          {
            OFFSET 0 0 0
          }
        }
      }
    }
  }
  JOINT RightUpLeg
  {
    OFFSET -8.2249 1.95398 -2.59336
    CHANNELS 3 Zrotation Xrotation Yrotation
    JOINT RightLeg
    {
      OFFSET 43.5653 0 0
      CHANNELS 3 Zrotation Xrotation Yrotation
      JOINT RightFoot
      {
        OFFSET 40.6238 0 0
        CHANNELS 3 Zrotation Xrotation Yrotation
        JOINT RightToeBase
        {
          OFFSET 12.7242 0 0
          CHANNELS 3 Zrotation Xrotation Yrotation
          End Site
          {
            OFFSET 0 0 0
          }
        }
      }
    }
  }
  JOINT Spine
  {
    OFFSET 0.165834 0.87714 6.61349
    CHANNELS 3 Zrotation Xrotation Yrotation
    JOINT Spine1
    {
      OFFSET 7.38963 1.71661e-005 0
      CHANNELS 3 Zrotation Xrotation Yrotation
      JOINT Spine2
      {
        OFFSET 11.9445 1.14441e-005 0
        CHANNELS 3 Zrotation Xrotation Yrotation
        JOINT Spine3
        {
          OFFSET 14.7254 4.19617e-005 0
          CHANNELS 3 Zrotation Xrotation Yrotation
          JOINT Spine4
          {
            OFFSET 10.9679 0 0
            CHANNELS 3 Zrotation Xrotation Yrotation
            JOINT RightShoulder
            {
              OFFSET 2.46616 -1.6653 3.69651
              CHANNELS 3 Zrotation Xrotation Yrotation
              JOINT RightArm
              {
                OFFSET 13.0012 0 0
                CHANNELS 3 Zrotation Xrotation Yrotation
                JOINT RightForeArm
                {
                  OFFSET 28.7848 1.52588e-005 0
                  CHANNELS 3 Zrotation Xrotation Yrotation
                  JOINT RightHand
                  {
                    OFFSET 26.5688 1.52588e-005 0
                    CHANNELS 3 Zrotation Xrotation Yrotation
                    End Site
                    {
                      OFFSET 0 0 0
                    }
                  }
                }
              }
            }
            JOINT LeftShoulder
            {
              OFFSET 2.38034 -1.29275 -3.7523
              CHANNELS 3 Zrotation Xrotation Yrotation
              JOINT LeftArm
              {
                OFFSET 16.3182 6.10352e-005 0
                CHANNELS 3 Zrotation Xrotation Yrotation
                JOINT LeftForeArm
                {
                  OFFSET 27.0901 0 0
                  CHANNELS 3 Zrotation Xrotation Yrotation
                  JOINT LeftHand
                  {
                    OFFSET 24.5451 1.52588e-005 0
                    CHANNELS 3 Zrotation Xrotation Yrotation
                    End Site
                    {
                      OFFSET 0 0 0
                    }
                  }
                }
              }
            }
            JOINT Neck
            {
              OFFSET 5.0226 -0.0266342 0
              CHANNELS 3 Zrotation Xrotation Yrotation
              JOINT Head
              {
                OFFSET 6.69363 2.86102e-005 0
                CHANNELS 3 Zrotation Xrotation Yrotation
                End Site
                {
                  OFFSET 0 0 0
                }
              }
            }
          }
        }
      }
    }
  }
}
MOTION
Frames:	18
Frame Time:	0.0416667
36.7996 91.605 -276.595 65.4061 -74.3069 66.6182 -167.987 -6.53657 97.6928 -36.9276 31.3426 5.64835 73.4868 8.92801 5.96371 56.3119 10.3507 -10.3869 175.469 50.937 96.3992 -85.2077 21.352 -1.72094 81.8828 -6.53682 0.184908 16.4018 -3.71796 4.26816 -2.49454 7.81664 -90.3688 11.2448 -5.13603 -0.226912 -0.415929 -5.14102 -4.82727e-005 -23.0255 -4.82982 -1.7636 -3.01283 -4.82983 -1.76363 97.0612 -31.1329 -92.2195 46.224 -19.4067 44.2904 -51.4414 12.0116 -86.9 -0.0721602 -0.0141668 -2.31696 -86.2122 -25.7861 79.6492 -7.21333 -15.4886 -57.0134 55.0648 -35.2341 -113.479 7.13342 1.05987 9.53737 32.8988 2.51738 -8.86747 1.69947 6.21894 2.6427 
37.3849 92.6232 -268.697 68.4062 -78.3222 69.1859 -168.045 -17.4519 96.821 -25.8596 31.7986 6.6177 59.6886 1.72017 4.90472 60.1119 11.3366 -9.13864 178.41 50.4463 95.2341 -74.9631 17.6415 -1.76322 78.0976 -5.50766 -0.369137 17.725 -3.27539 3.85384 -2.65471 7.98405 -90.473 10.9073 -5.50417 -0.421883 -0.751971 -5.51739 -0.178487 -23.3709 -5.12224 -2.06088 -3.35829 -5.12224 -2.06088 96.4727 -30.0767 -93.592 43.9312 -19.4259 47.2017 -49.5663 12.6168 -87.5045 1.20611 0.0236725 -1.70239 -85.5751 -24.6104 80.6469 -8.92341 -22.3937 -54.6036 47.4677 -34.0785 -120.507 12.4015 2.02593 12.1359 34.9797 5.22375 -6.54382 -1.65946 7.83007 1.90055 
37.7297 93.8442 -259.972 59.2432 -80.6022 62.4187 -168.076 -22.819 97.781 -20.7829 31.8588 9.54067 50.9287 -3.01433 1.05238 40.6979 4.64601 -3.53609 179.283 49.4169 97.4752 -61.9319 11.5097 -0.821573 73.1145 -4.62869 -1.91585 19.3486 -3.20557 4.52521 -2.60481 7.961 -90.9496 10.9263 -5.62512 -1.35681 -0.732938 -5.67937 -1.10718 -23.3426 -4.95686 -2.98813 -3.3299 -4.95686 -2.98813 96.1685 -28.4057 -94.5579 42.4292 -18.5809 48.5874 -46.2072 13.4205 -88.9252 0.913613 0.0116226 -2.74939 -84.5092 -23.8131 82.6855 -8.23566 -22.1962 -53.8106 46.3998 -33.8625 -121.009 9.27146 1.47596 10.5983 36.547 7.48516 -4.18842 -4.08402 8.94422 1.1564 
38.1242 94.7587 -251.381 52.2146 -81.5383 56.2057 -169.067 -24.3508 96.8704 -24.3712 33.6932 11.9794 51.1967 -2.86224 2.05641 22.7372 -1.57101 -1.90828 179.464 47.1367 97.6754 -49.3445 4.1906 0.134143 71.2173 -4.4189 -1.14211 18.362 -3.62963 5.0781 -2.59186 7.88985 -91.2488 11.0512 -5.73829 -1.93301 -0.608143 -5.81776 -1.67785 -23.2106 -4.89185 -3.57107 -3.19799 -4.89186 -3.57107 95.2689 -27.5274 -96.6382 40.7259 -16.5268 49.8383 -44.4055 13.9913 -91.0299 -1.22841 -0.033723 -3.9639 -84.3992 -24.1339 82.9971 -5.64153 -19.205 -52.2031 34.6227 -27.4972 -124.477 6.06847 -0.072539 -4.07634 35.6142 9.18892 -2.31034 -4.62791 9.70311 0.730997 
38.3015 94.9163 -243.266 47.4391 -82.3253 50.6744 -169.613 -24.0518 95.699 -31.6022 34.6257 11.5202 56.805 0.133659 4.83137 13.5824 -3.06022 -6.32361 -179.879 44.8414 97.1692 -39.3985 -2.07131 0.231178 71.0137 -4.4643 -1.547 17.7563 -4.4739 6.85354 -2.48156 7.76925 -91.2169 11.2956 -5.50495 -1.8759 -0.364697 -5.58216 -1.63117 -22.9614 -4.68651 -3.44611 -2.94873 -4.68652 -3.44614 94.2241 -29.8122 -98.2064 37.6453 -14.1793 49.5253 -39.8941 13.6009 -92.1794 0.14123 -0.0123527 -2.76957 -84.5066 -24.0835 82.7576 -4.37035 -11.0896 -51.0675 38.5491 -29.6498 -119.837 7.0109 0.021784 -2.86523 33.1538 9.20044 -3.34421 -3.07163 10.119 2.69515 
38.2696 94.483 -235.536 51.7739 -83.5208 53.484 -169.504 -23.6605 94.9465 -38.9336 33.1869 9.99952 58.8485 0.9396 4.54839 16.4847 -1.52048 -7.54401 179.396 42.4416 97.0662 -35.54 -4.00864 0.886418 70.7216 -4.25988 -2.49459 18.4724 -4.39165 7.0563 -2.37883 7.77391 -91.0644 11.2953 -5.2295 -1.59907 -0.365798 -5.2948 -1.3668 -22.9597 -4.50694 -3.0992 -2.94709 -4.50693 -3.0992 93.3874 -33.2136 -98.9666 32.9028 -10.9444 46.651 -38.3753 12.6746 -93.8027 -1.13162 -0.0400807 -1.21431 -85.5574 -26.7831 81.2466 -2.61334 -4.0972 -48.7772 50.4063 -34.1922 -112.486 11.7523 1.50934 8.94206 31.4224 8.92019 -3.21585 -2.50553 9.78235 2.8101 
38.0299 93.7124 -227.9 66.4246 -84.7058 66.575 -169.482 -21.7485 94.3059 -49.055 29.7265 9.0671 54.9269 -1.41321 2.37825 28.3848 1.62429 -5.46815 178.138 40.5947 97.2589 -37.7897 -1.8581 1.73035 68.7923 -3.31147 -2.874 19.7823 -2.28664 2.34039 -2.31575 7.88655 -90.8416 11.0815 -4.99999 -1.19188 -0.580197 -5.04759 -0.970147 -23.1744 -4.41031 -2.64193 -3.16179 -4.41031 -2.64194 91.9964 -37.835 -100.322 27.3325 -7.34062 42.2445 -40.6487 11.6415 -95.5395 -3.70876 -0.103072 -2.11565 -86.8643 -31.0002 79.7624 0.0122295 4.55249 -44.9391 56.6849 -35.413 -106.552 9.39831 1.26812 8.84072 31.3267 8.49935 -2.96246 -3.17007 9.26591 2.14754 
37.8218 93.0939 -220.039 86.188 -85.5343 86.3177 -167.739 -17.3984 95.9825 -61.1947 28.0223 8.17975 50.8376 -3.31166 5.36789 35.1306 3.29688 -3.63686 176.84 38.7513 98.1809 -42.9828 -3.49064 2.3702 61.9478 -0.507303 -3.57838 16.5809 -3.25521 3.17803 -2.12206 7.98973 -90.7677 10.8772 -4.57988 -1.09702 -0.785995 -4.62371 -0.893989 -23.3705 -4.03821 -2.42461 -3.35786 -4.03821 -2.42462 90.4169 -42.1782 -101.915 22.4496 -2.49652 37.2423 -41.5264 10.4258 -97.0854 -4.13474 -0.143468 -0.983882 -88.7893 -35.616 77.4602 0.789784 13.3423 -39.8978 59.6559 -35.316 -101.891 6.97804 0.733716 5.84639 29.8661 7.75759 -3.26477 -2.49072 8.67082 2.49695 
37.3747 92.2309 -212.506 104.512 -85.781 104.951 -166.694 -11.4267 98.2272 -73.0119 21.3085 7.43611 54.3811 -1.47604 4.7853 31.7474 2.40652 -4.4988 174.743 37.4959 100.063 -52.9464 -4.71932 3.05163 69.1007 -3.12426 -3.7385 8.227 -4.51362 2.33314 -1.89165 8.02222 -90.8098 10.8104 -4.1404 -1.2254 -0.854321 -4.19031 -1.0417 -23.4268 -3.58059 -2.41431 -3.41419 -3.58058 -2.41432 88.7796 -44.9316 -103.848 18.4532 3.81087 31.8534 -40.2943 8.92033 -99.0785 -6.31436 -0.304653 0.679714 -91.1182 -41.6218 75.1493 0.135779 18.686 -32.863 65.2299 -35.0038 -97.2379 8.85901 1.29711 9.81664 26.937 7.77624 -0.441279 0.293877 7.5999 0.778504 
36.6863 90.9034 -205.326 117.543 -85.9151 120.031 -166.564 -3.29083 101.456 -85.3834 17.1019 7.84609 57.8672 0.0889936 4.58537 31.9653 3.0122 -6.43629 173.234 34.8104 103.665 -59.6438 -4.33839 3.41588 74.0626 -5.29494 -5.11656 15.1582 -4.23581 4.84274 -1.49403 8.10126 -91.0676 10.6448 -3.46677 -1.80951 -1.02257 -3.54305 -1.65507 -23.5735 -2.76278 -2.76798 -3.56083 -2.76279 -2.76798 87.9005 -47.7023 -104.457 16.7531 9.02068 24.446 -39.6695 7.95655 -100.659 -6.04145 -0.355275 2.14313 -92.1499 -44.9355 74.4238 -5.29827 24.061 -26.4433 63.9502 -31.8884 -94.5518 8.57269 0.981025 6.87772 25.0746 6.98443 1.05153 3.43458 6.33397 0.756723 
35.8459 90.1352 -198.525 127.724 -85.6701 134.006 -168.444 6.76928 105.725 -96.5184 17.3556 9.11442 60.5012 1.62683 6.60627 29.8054 2.7664 -7.84035 172.85 29.5807 107.928 -61.3219 -3.4019 4.48449 78.5502 -7.28435 -5.71754 15.738 -3.9828 4.56446 -1.06129 8.24971 -91.4977 10.3332 -2.79948 -2.73129 -1.33737 -2.91693 -2.60547 -23.8617 -1.84976 -3.44582 -3.84904 -1.84975 -3.44582 86.5693 -50.5239 -105.68 16.1333 12.653 14.267 -35.5569 6.55507 -100.441 -8.84678 -0.808195 5.16951 -93.5143 -47.4593 73.03 -12.2616 25.5677 -16.915 66.4709 -28.7972 -91.3158 4.93574 0.452955 4.455 25.5913 6.3553 2.69874 4.34337 5.05121 -0.789214 
35.4463 89.7899 -191.67 126.203 -85.9854 134.142 -172.836 16.6985 106.405 -104.267 18.8658 9.81554 62.0035 2.69993 8.23175 27.9037 2.37518 -8.4625 173.421 24.5359 109.654 -61.4045 -2.60232 5.20893 82.9863 -9.12331 -5.78073 16.7705 -4.47929 6.31068 -0.729479 8.26183 -91.7181 10.3076 -2.23895 -3.21922 -1.36517 -2.3784 -3.11767 -23.8738 -1.16872 -3.74259 -3.86112 -1.16871 -3.7426 85.8409 -51.2263 -106.566 17.4708 12.4293 2.72482 -33.7634 6.626 -99.8099 -9.16613 -0.65751 3.20046 -93.3682 -48.1278 73.4397 -20.8696 22.6678 -4.86825 68.7904 -27.9428 -91.4366 4.95362 0.327156 2.26054 27.2583 5.77721 2.90852 3.07692 4.38868 -0.588797 
35.2441 89.5346 -184.742 123.024 -85.6158 129.107 -176.702 25.0179 103.361 -108.114 21.5678 10.0894 63.0704 4.27955 13.3636 27.4546 3.64791 -12.9163 173.691 18.9214 107.606 -61.4217 -3.51397 4.93964 87.2569 -10.8131 -5.73678 17.7921 -4.29788 6.43725 -0.537124 8.20518 -91.5617 10.4312 -1.78578 -2.94582 -1.24162 -1.91365 -2.86445 -23.7528 -0.818449 -3.34588 -3.74019 -0.818454 -3.34589 85.0468 -50.9346 -107.838 16.6478 10.5509 -6.43183 -33.5212 7.5046 -100.392 -7.66022 -0.615299 4.64095 -92.8804 -48.9679 74.4025 -26.3869 19.6082 7.77958 69.8265 -30.2962 -93.0573 4.71659 0.21677 0.709495 27.1 4.96056 3.30395 3.56561 3.51363 0.233703 
34.9994 89.599 -177.725 114.643 -86.1772 118.421 179.697 33.3025 100.732 -107.018 16.8861 9.50228 66.7596 5.30516 8.82269 26.4137 3.92637 -14.6059 174.176 12.9349 105.02 -58.7005 -5.08068 4.4438 90.2832 -12.2347 -6.40964 19.1471 -4.53065 7.82861 -0.147892 7.94746 -91.17 10.9644 -0.836046 -2.24856 -0.708209 -0.93416 -2.20962 -23.2277 -0.121837 -2.39578 -3.21509 -0.121827 -2.39578 82.8388 -52.6835 -110.513 10.9687 7.99105 -11.9728 -32.868 9.53372 -103.274 -9.40761 -0.764541 4.60899 -90.4489 -48.4412 77.9313 -28.9108 21.379 18.5125 71.6688 -33.9178 -92.6753 6.09105 0.400498 2.39497 26.1016 2.30164 0.326252 3.92033 2.2285 2.53216 
34.7853 90.3163 -170.278 111.571 -88.0685 112.575 179.161 39.4217 97.523 -101.953 14.4595 8.80417 69.4108 6.51698 8.68475 24.8358 3.50908 -14.4664 174.866 6.22621 101.749 -54.1375 -5.06719 3.55166 91.2159 -12.2672 -4.73386 19.4206 -4.87625 8.89209 0.603378 7.76999 -90.8829 11.3344 0.789318 -1.83458 -0.337743 0.707825 -1.86753 -22.8666 1.30411 -1.51266 -2.85395 1.30411 -1.51266 86.7577 -48.2696 -106.059 9.83622 3.66417 -16.9691 -32.153 12.3448 -106.662 -6.89121 -0.473355 3.28436 -89.9411 -48.0096 78.6033 -28.6873 24.3707 25.713 70.0158 -36.2919 -93.1664 6.89325 0.491012 2.96799 26.576 -0.143389 1.64656 3.51998 -0.618837 2.12804 
34.4619 91.8215 -162.169 -163.107 -88.7217 -165.031 179.719 41.6092 94.368 -93.4255 12.605 8.04848 70.5423 6.957 8.74619 25.4783 2.77556 -11.7817 175.256 -2.11112 98.177 -48.1018 -8.11069 1.92474 86.5415 -10.6367 -5.6433 21.899 -4.41883 9.33461 1.42054 7.69708 -90.2907 11.4974 2.69023 -0.855985 -0.17114 2.64995 -0.97363 -22.729 2.82305 -0.0072532 -2.71635 2.82304 -0.00726315 88.0581 -46.1874 -104.642 7.96325 2.37155 -17.3127 -30.9686 14.9767 -112.329 -6.23354 -0.409784 2.89877 -87.6537 -43.4302 81.2238 -31.1361 29.5487 32.7663 71.7728 -38.5541 -91.286 7.14826 0.4978 2.83161 26.878 -4.38825 -2.22245 2.37787 -3.16663 4.3418 
34.0153 93.4468 -153.551 -124.994 -87.5672 -129.508 -179.977 41.8063 91.7806 -82.6593 12.6994 7.39047 70.8626 7.423 9.9782 25.1057 2.91183 -12.4856 175.045 -9.56244 94.9137 -40.8486 -9.52125 0.381012 78.0479 -7.37149 -6.5553 26.0157 -4.22467 11.9367 2.15031 7.67209 -89.8615 11.5403 4.3427 -0.169952 -0.123409 4.331 -0.361292 -22.7142 4.19263 1.14542 -2.70151 4.19264 1.14542 89.4609 -42.003 -103.567 7.54667 1.92421 -15.4663 -30.4586 17.0509 -117.194 -4.98508 -0.299792 2.25224 -87.149 -41.6172 81.675 -30.0336 32.7099 38.2014 76.1273 -40.847 -88.8256 6.65494 0.296242 0.661078 27.9343 -7.52728 -2.09833 0.319535 -6.28623 3.44732 
33.4606 95.0636 -144.657 -108.318 -86.2197 -115.669 179.991 40.2816 89.5292 -69.4086 10.9677 6.54683 70.9548 7.0893 8.30821 27.1323 2.78811 -10.4562 174.06 -15.8999 90.9253 -33.9623 -10.9854 -1.50744 67.5501 -3.14874 -4.39067 26.4224 -3.99762 11.5771 2.80091 7.65287 -89.3117 11.561 5.89418 0.764472 -0.0966385 5.92209 0.503409 -22.7239 5.39118 2.50546 -2.71126 5.39117 2.50546 91.0974 -38.0891 -101.861 7.99539 0.255889 -13.6914 -29.9032 18.9072 -120.729 -4.04599 -0.255534 2.7398 -86.2286 -37.918 82.4894 -29.9189 35.4233 42.2193 78.2953 -42.1348 -86.8465 6.01761 0.300937 1.0879 29.9093 -10.8047 -3.23632 -2.75613 -9.01454 3.22031 
